<?xml version="1.0" encoding="UTF-8"?>
<svg version="1.1" xmlns="http://www.w3.org/2000/svg" width="117" height="104">
<path d="M0 0 C0.92039062 0.58910156 1.84078125 1.17820312 2.7890625 1.78515625 C9.81221432 6.49627875 14.55268576 11.82187877 19 19 C19.5878125 19.91652344 19.5878125 19.91652344 20.1875 20.8515625 C22.51335861 27.00166939 21.96017655 35.65947879 20.16015625 41.921875 C17.14291618 48.30176309 12.63893251 53.73287871 8 59 C7.278125 59.86367187 6.55625 60.72734375 5.8125 61.6171875 C-0.81215622 68.94252851 -8.31825375 73.38476803 -16.85375977 78.21166992 C-23.40100186 81.94264126 -29.08172813 85.92661704 -34.66015625 90.9765625 C-40.59508941 96.1089421 -44.87962027 96.53352271 -52.61328125 96.34765625 C-58.9814515 95.69394558 -62.51979473 93.01489733 -66.57006836 88.04785156 C-69.81201273 83.40495769 -72.20500831 78.23301116 -74.75 73.1875 C-75.36932663 71.97400121 -75.98953169 70.76095036 -76.6105957 69.54833984 C-77.84081903 67.14568528 -79.06817875 64.74160552 -80.29345703 62.33642578 C-82.55574796 57.91346901 -84.86073429 53.51430717 -87.1875 49.125 C-87.5371582 48.46137451 -87.88681641 47.79774902 -88.24707031 47.11401367 C-89.65343087 44.45945575 -91.09096649 41.85145708 -92.66015625 39.2890625 C-96.24716175 33.1608257 -96.65149625 26.77852939 -95 20 C-91.29192437 11.50232668 -84.15037809 3.46330229 -76 -1 C-71.18015018 -2.60661661 -67.48791837 -2.60089011 -62.75 -0.6875 C-57.98524877 2.2863994 -54.22024478 6.60805317 -50.35546875 10.63671875 C-48.23431412 13.01525877 -48.23431412 13.01525877 -46 14 C-45.75378906 13.42507812 -45.50757813 12.85015625 -45.25390625 12.2578125 C-43.80206947 9.64360173 -42.09712451 7.93663792 -39.9375 5.875 C-37.08428067 3.22095 -37.08428067 3.22095 -35 0 C-34.34 0 -33.68 0 -33 0 C-33 -0.66 -33 -1.32 -33 -2 C-32.34 -2 -31.68 -2 -31 -2 C-31 -2.66 -31 -3.32 -31 -4 C-20.54075541 -11.47088899 -9.52089019 -6.57673799 0 0 Z " fill="#242424" transform="translate(96,8)"/>
<path d="M0 0 C4.55367243 1.55725264 8.45236421 4.13091984 12.41015625 6.82421875 C13.40015625 7.48421875 14.39015625 8.14421875 15.41015625 8.82421875 C15.41015625 9.48421875 15.41015625 10.14421875 15.41015625 10.82421875 C16.07015625 10.82421875 16.73015625 10.82421875 17.41015625 10.82421875 C21.03183351 15.98236515 21.80896317 18.87536528 20.76953125 25.1015625 C20.6509375 25.67003906 20.53234375 26.23851563 20.41015625 26.82421875 C19.75015625 26.82421875 19.09015625 26.82421875 18.41015625 26.82421875 C18.29542969 27.39785156 18.18070312 27.97148438 18.0625 28.5625 C17.35051393 31.0310026 16.34325297 32.84397973 14.97265625 35.01171875 C14.54082031 35.70652344 14.10898438 36.40132812 13.6640625 37.1171875 C12.41015625 38.82421875 12.41015625 38.82421875 10.41015625 39.82421875 C10.08015625 40.81421875 9.75015625 41.80421875 9.41015625 42.82421875 C7.30318964 44.21600373 5.24893458 45.44054332 3.03515625 46.63671875 C2.40536865 46.98710205 1.77558105 47.33748535 1.12670898 47.69848633 C-1.80816428 49.32600358 -4.76193828 50.91660408 -7.71875 52.50390625 C-11.86038226 54.72736947 -15.85910993 56.91283095 -19.65234375 59.69921875 C-22.58984375 61.82421875 -22.58984375 61.82421875 -24.58984375 61.82421875 C-24.58984375 62.48421875 -24.58984375 63.14421875 -24.58984375 63.82421875 C-27.22068855 67.39994443 -30.20012682 69.45049758 -34.48046875 70.6015625 C-37.8953122 70.91473282 -40.31159096 70.85593046 -43.58984375 69.82421875 C-46.81684576 66.59126286 -48.55870022 62.87714571 -50.58984375 58.82421875 C-51.52370215 57.25303601 -52.468802 55.68850831 -53.421875 54.12890625 C-56.6427409 48.80370139 -59.57319967 43.36608122 -62.40234375 37.82421875 C-62.89154297 36.90382812 -63.38074219 35.9834375 -63.88476562 35.03515625 C-66.94130781 29.03198902 -68.77183614 23.62960666 -68.58984375 16.82421875 C-66.8370861 11.79964681 -62.08115424 7.58621079 -57.58984375 4.82421875 C-54.82645622 4.52814152 -53.29570524 4.97863704 -50.58984375 5.82421875 C-50.58984375 6.81421875 -50.58984375 7.80421875 -50.58984375 8.82421875 C-49.69845703 8.97890625 -49.69845703 8.97890625 -48.7890625 9.13671875 C-44.84981993 10.36816936 -42.65258944 13.35650696 -40.58984375 16.82421875 C-39.84939015 19.83858146 -39.60389739 22.72539154 -39.58984375 25.82421875 C-36.08116662 27.04852311 -33.26598012 27.51537246 -29.58984375 26.82421875 C-24.08658433 22.12318374 -20.30437986 15.99375215 -16.40234375 9.94921875 C-12.18220757 3.48934549 -8.26914844 -1.5460329 0 0 Z " fill="#DA4C31" transform="translate(80.58984375,18.17578125)"/>
<path d="M0 0 C2.99324263 1.0975223 3.84610901 1.67682892 5.25 4.625 C5.4975 5.40875 5.745 6.1925 6 7 C6.66 7 7.32 7 8 7 C10.5393228 10.41831915 11.3636198 12.75776898 11 17 C9.68 17.33 8.36 17.66 7 18 C6.731875 16.96875 6.46375 15.9375 6.1875 14.875 C5.193127 11.34819504 3.66926034 8.26264522 2 5 C2 4.34 2 3.68 2 3 C1.34 3 0.68 3 0 3 C0 2.01 0 1.02 0 0 Z " fill="#F9E6E2" transform="translate(87,26)"/>
</svg>
